<svg xmlns="http://www.w3.org/2000/svg" xmlns:xlink="http://www.w3.org/1999/xlink" x="0px" y="0px"
	 viewBox="0 0 80 80" style="enable-background:new 0 0 80 80;" xml:space="preserve">
<g>
	<path d="M50.7,43.3h-3.2c-2.2,0-4.1,1.8-4.1,4.1c0,0.9-0.8,1.6-1.7,1.6c-0.2,0-0.3,0-0.5-0.1c-4.4-1.9-8-5.4-9.9-9.9
		c-0.3-0.8,0.2-1.8,1-2.1c0.1-0.1,0.3-0.1,0.5-0.1c2.2,0,4.1-1.8,4.1-4.1v-3.2c0-2.2-1.8-4.1-4.1-4.1h-3.2c-2.2,0-4.1,1.8-4.1,4.1
		v3.6c0.4,11.6,9.9,20.8,21.5,21.5h3.6c2.2,0,4.1-1.8,4.1-4.1v-3.2C54.8,45.1,53,43.3,50.7,43.3z"/>
	<path d="M63.2,3.5h-46c-5.4,0-9.8,4.4-9.9,9.8c0,0,0,0.1,0,0.1v8.4H3.7C1.8,21.6,0.1,23.1,0,25c0,0.1,0,0.3,0,0.4
		c-0.1,1.9,1.3,3.5,3.2,3.6c0.1,0,0.3,0,0.4,0h3.6v7.3H3.7c-1.9-0.1-3.5,1.3-3.6,3.2c0,0.1,0,0.3,0,0.4c-0.1,1.9,1.3,3.5,3.2,3.6
		c0.1,0,0.3,0,0.4,0h3.6v7.3H3.7c-2,0-3.6,1.6-3.6,3.6c0,2,1.6,3.6,3.6,3.6h3.6v8.4c0,5.4,4.4,9.8,9.8,9.9c0,0,0.1,0,0.1,0h46
		c5.4,0,9.8-4.4,9.9-9.8c0,0,0-0.1,0-0.1V13.4C73,7.9,68.7,3.5,63.2,3.5C63.2,3.5,63.2,3.5,63.2,3.5z M65.7,66.6
		c0,1.4-1.1,2.5-2.4,2.6c0,0-0.1,0-0.1,0h-46c-1.4,0-2.5-1.1-2.6-2.4c0,0,0-0.1,0-0.1V13.4c0-1.4,1.1-2.5,2.4-2.6c0,0,0.1,0,0.1,0
		h46c1.4,0,2.5,1.1,2.6,2.4c0,0,0,0.1,0,0.1V66.6z"/>
</g>
</svg>
