<svg xmlns="http://www.w3.org/2000/svg" xmlns:xlink="http://www.w3.org/1999/xlink" x="0px" y="0px"
	 viewBox="0 0 80 80" style="enable-background:new 0 0 80 80;" xml:space="preserve">
<path d="M76.2,35.5l-8.4-8.1V6.7c0-0.8-0.6-1.4-1.4-1.4h-9.7c-0.8,0-1.4,0.6-1.4,1.4v8.8L42.9,3.7c-1.6-1.5-4.1-1.5-5.7,0L3.8,35.5
	c-0.8,0.8-1.3,1.8-1.3,2.9c0,1.1,0.4,2.2,1.2,3L5.4,43c1.6,1.6,4.2,1.6,5.8,0.1l2.5-2.3V68c-2.4,0.6-4.2,2.8-4.2,5.4v2.8
	c0,0.8,0.6,1.4,1.4,1.4h58.3c0.8,0,1.4-0.6,1.4-1.4v-2.8c0-2.6-1.8-4.7-4.2-5.4V40.7l2.5,2.3c0.8,0.8,1.8,1.2,2.9,1.2
	s2.1-0.4,2.9-1.2l1.6-1.6c0.8-0.8,1.2-1.8,1.2-3C77.5,37.3,77,36.3,76.2,35.5L76.2,35.5z M58,8.1H65v16.7L58,18.1V8.1z M67.8,73.3
	v1.4H12.2v-1.4c0-1.5,1.2-2.8,2.8-2.8h50C66.5,70.5,67.8,71.8,67.8,73.3z M40,41.4c-6.9,0-12.5,5.6-12.5,12.5v13.9H16.4V38.1
	L40,15.7l23.6,22.4v29.7H52.5V53.9C52.5,47,46.9,41.4,40,41.4z M49.7,53.9v13.9H30.3V53.9c0-5.4,4.4-9.7,9.7-9.7
	S49.7,48.5,49.7,53.9L49.7,53.9z M74.3,39.4L72.7,41c-0.5,0.5-1.4,0.5-1.9,0L66,36.5l-0.1-0.1L41,12.8c-0.3-0.2-0.6-0.4-1-0.4
	c-0.3,0-0.7,0.1-1,0.4l-25,23.6L14,36.5L9.3,41c-0.5,0.5-1.4,0.5-1.9,0l-1.6-1.6c-0.3-0.3-0.4-0.6-0.4-1s0.2-0.7,0.4-1L39,5.7
	c0.5-0.5,1.4-0.5,1.9,0L65.4,29l0,0l8.9,8.5c0.3,0.2,0.4,0.6,0.4,1C74.7,38.8,74.6,39.1,74.3,39.4L74.3,39.4z"/>
</svg>
