<svg xmlns="http://www.w3.org/2000/svg" xmlns:xlink="http://www.w3.org/1999/xlink" x="0px" y="0px"
	 viewBox="0 0 80 80" style="enable-background:new 0 0 80 80;" xml:space="preserve">
<g>
	<path d="M35.3,23.1c-4,1.8-6.7,5.7-6.9,10.2l-0.3,9.4c-0.1,1.7,1.3,3,2.9,3h1.2l-2.1,13.8c-0.3,2.1,1.3,4,3.5,4
		c1.9,0,3.5-1.6,3.5-3.5V24.2C36.9,23.4,36.1,22.8,35.3,23.1z"/>
	<path d="M50.5,23.1c-0.7,0-1.3,0.6-1.3,1.3v9.4c0,0.3-0.3,0.6-0.6,0.6h-0.8c-0.3,0-0.6-0.3-0.6-0.6v-9.5c0-0.7-0.6-1.3-1.3-1.3
		s-1.3,0.6-1.3,1.3v9.4c0,0.3-0.3,0.6-0.6,0.6h-0.8c-0.3,0-0.6-0.3-0.6-0.6v-9.4c0-0.7-0.6-1.3-1.3-1.3s-1.3,0.6-1.3,1.3v11
		c0,1.6,1.3,2.9,2.9,2.9h0.6l-1.2,21.7c-0.2,2.1,1.5,3.7,3.5,3.7H46c2.1,0,3.6-1.7,3.5-3.7l-1.3-21.7h0.6l0,0c1.6,0,2.9-1.3,2.9-2.9
		v-11C51.8,23.6,51.2,23.1,50.5,23.1z"/>
	<path d="M60.4,10.6h-1V7.1c0-1.9-0.9-3.6-2.4-4.8s-3.4-1.6-5.2-1.1L18.1,9.9c-2.7,0.7-4.6,3.1-4.6,5.9v54.1c0,3.4,2.8,6.1,6.1,6.1
		h40.9c3.3,0,6.1-2.8,6.1-6.1V16.7C66.4,13.3,63.7,10.6,60.4,10.6z M52.8,5.5c0.7-0.2,1.2,0.1,1.4,0.3c0.4,0.3,0.6,0.8,0.6,1.3v3.5
		H33.2L52.8,5.5z M62,69.9c0,0.9-0.7,1.7-1.7,1.7H19.5c-0.9,0-1.7-0.7-1.7-1.7V15.8c0-0.3,0.1-0.6,0.2-0.8h42.3
		c0.9,0,1.7,0.7,1.7,1.7L62,69.9L62,69.9z"/>
</g>
</svg>
