<svg xmlns="http://www.w3.org/2000/svg" xmlns:xlink="http://www.w3.org/1999/xlink" x="0px" y="0px"
	 viewBox="0 0 80 80" style="enable-background:new 0 0 80 80;" xml:space="preserve">
<g>
	<path d="M27.1,46.5h32l12.8-28.7H18.6L14.7,10H0v5.2h11.4l1.3,2.6l13.6,27.3L27.1,46.5z M21.2,23h42.6l-8.1,18.3H30.3L21.2,23z
		 M54.1,51.7c-5,0-9.1,4.1-9.1,9.1s4.1,9.1,9.1,9.1s9.1-4.1,9.1-9.1S59.2,51.7,54.1,51.7z M54.1,64.8c-2.2,0-3.9-1.8-3.9-3.9
		c0-2.2,1.8-3.9,3.9-3.9c2.2,0,3.9,1.8,3.9,3.9C58,63,56.3,64.8,54.1,64.8z M30.7,51.7c-5,0-9.1,4.1-9.1,9.1s4.1,9.1,9.1,9.1
		s9.1-4.1,9.1-9.1S35.7,51.7,30.7,51.7z M30.7,64.8c-2.2,0-3.9-1.8-3.9-3.9c0-2.2,1.8-3.9,3.9-3.9s3.9,1.8,3.9,3.9
		C34.6,63,32.8,64.8,30.7,64.8z"/>
</g>
</svg>
